<svg xmlns="http://www.w3.org/2000/svg"><defs><symbol id="icon-basketball" viewBox="0 0 50 50"><path d="M24 2.023c-6.488.282-12.28 3.262-16.297 7.844C12.93 12.54 16.59 17.827 16.95 24H24zm2 0V24h7.05c.36-6.172 4.02-11.46 9.247-14.133C38.28 5.285 32.487 2.305 26 2.023zM6.422 11.465c-2.594 3.55-4.195 7.863-4.4 12.535H14.95c-.368-5.543-3.75-10.258-8.528-12.535zm37.156 0C38.8 13.742 35.418 18.457 35.05 24h12.923c-.2-4.672-1.8-8.984-4.395-12.535zM2.023 26c.204 4.672 1.805 8.984 4.4 12.535 4.776-2.277 8.16-6.992 8.526-12.535zm14.926 0c-.364 6.172-4.02 11.46-9.247 14.137 4.012 4.578 9.81 7.558 16.297 7.836V26zM26 26v21.973c6.488-.278 12.28-3.258 16.297-7.836C37.07 37.46 33.41 32.172 33.05 26zm9.05 0c.368 5.543 3.75 10.258 8.528 12.535 2.594-3.55 4.195-7.863 4.395-12.535z"/></symbol><symbol id="icon-coffee" viewBox="0 0 50 50"><path d="M25.984 1.984c-.55.012-.992.465-.984 1.016 0 3.055-1.168 3.965-2.66 5.305C20.848 9.64 19.016 11.41 19.016 15c-.004.36.183.695.496.88.312.18.695.18 1.008 0 .312-.185.5-.52.496-.88 0-2.984 1.16-3.863 2.66-5.207C25.176 8.45 27 6.648 27 3c.004-.27-.102-.53-.293-.723-.19-.19-.453-.297-.723-.293zm5.008 5c-.55.012-.992.465-.984 1.016 0 1.953-.672 2.418-1.668 3.305C27.344 12.19 26 13.512 26 16c-.004.36.184.695.496.88.313.18.695.18 1.008 0 .312-.185.5-.52.496-.88 0-1.875.66-2.305 1.668-3.203 1.008-.895 2.34-2.25 2.34-4.797.004-.27-.102-.53-.293-.723-.192-.19-.453-.297-.723-.293zM11 19c-.55 0-1 .445-1 1v12c0 3.273 1.586 6.176 4.027 8h19.946c1.937-1.45 3.324-3.582 3.816-6.04 2.284-.187 3.956-1.183 4.91-2.714 1.027-1.664 1.273-3.777 1.284-6.074.004-.008.004-.016.004-.024.008-.05.012-.097.012-.148 0-1.645-1.355-3-3-3h-3v-2c0-.555-.45-1-1-1zm27 5h3c.566 0 1 .434 1 1 0 2.215-.29 4.043-1 5.19-.598.962-1.44 1.572-3 1.747zM7 42c-.55 0-1 .445-1 1 0 2.77 3.828 5 7 5h22c3.238 0 7-2.184 7-5 0-.555-.45-1-1-1z"/></symbol><symbol id="icon-computer-monitor" viewBox="0 0 50 50"><path d="M4 5c-1.103 0-2 .897-2 2v29c0 1.103.897 2 2 2h42c1.103 0 2-.897 2-2V7c0-1.103-.897-2-2-2H4zm0 2h42l.002 29H46v-6H4V7zm37 26h2v2h-2v-2zm-22 7v2h-3c-2 0-3 1-3 3v1h24v-1c0-2-1-3-3-3h-3v-2H19z"/></symbol><symbol id="icon-gaming-console" viewBox="0 0 50 50"><path d="M43.906.97c-.043.007-.086.018-.125.03-.464.105-.792.523-.78 1 0 1.898-.88 2.94-2.5 3.97-1.62 1.026-3.965 1.858-6.375 2.874-2.41 1.015-4.906 2.238-6.844 4.28-1.76 1.86-2.983 4.415-3.186 7.845-1.8-.15-2.922-.728-4.125-1.345C18.5 18.87 16.82 18 14 18 7.98 18 0 31.684 0 42c0 4.71 2.47 8 6 8 5.305 0 8.906-2.88 12.094-5.406C20.53 42.66 22.652 41 25 41s4.47 1.66 6.906 3.594C35.094 47.12 38.696 50 44 50c3.53 0 6-3.29 6-8 0-10.316-7.98-24-14-24-2.82 0-4.5.87-5.97 1.625-1.15.594-2.233 1.137-3.905 1.313.195-2.942 1.176-4.91 2.625-6.438 1.617-1.707 3.828-2.86 6.156-3.844s4.723-1.777 6.657-3C43.495 6.434 45 4.602 45 2c.012-.29-.105-.566-.313-.762-.21-.2-.496-.297-.78-.27zM37 27c1.105 0 2 .895 2 2s-.895 2-2 2-2-.895-2-2 .895-2 2-2zm-25 1h3v3h3v3h-3v3h-3v-3H9v-3h3zm21 3c1.105 0 2 .895 2 2s-.895 2-2 2-2-.895-2-2 .895-2 2-2zm8 0c1.105 0 2 .895 2 2s-.895 2-2 2-2-.895-2-2 .895-2 2-2zm-4 4c1.105 0 2 .895 2 2s-.895 2-2 2-2-.895-2-2 .895-2 2-2z"/></symbol><symbol id="icon-open-book" viewBox="0 0 50 50"><path d="M6 2c-.55 0-1 .45-1 1v36c0 .555.45 1 1 1 12.06 0 16.824 2.684 18 3.5V6.656C21.53 4.746 16.22 2 6 2zm38 0C33.78 2 28.47 4.746 26 6.656V43.5c1.176-.816 5.945-3.5 18-3.5.555 0 1-.445 1-1V3c0-.55-.445-1-1-1zM2.844 8C1.274 8 0 9.273 0 10.844v33.312C0 45.726 1.273 47 2.844 47H19.47c.71.98 2.526 3 5.53 3 3.004 0 4.82-2.02 5.53-3h16.626C48.726 47 50 45.73 50 44.156V10.844C50 9.274 48.727 8 47.156 8H47v31c0 1.652-1.348 3-3 3-11.75 0-16.12 2.602-16.875 3.125L27 45.25c-.695.55-1.016 1.438-1.97 1.438-.952 0-1.112-.8-1.936-1.376l-.22-.187C22.122 44.602 17.76 42 6 42c-1.652 0-3-1.348-3-3V8z"/></symbol><symbol id="icon-plane" viewBox="0 0 50 50"><path d="M46.78.188c-3.76 0-10.178 4.5-11.5 5.906l-6.75 6.75-24-3.25c-.31-.043-.62.086-.843.312l-3.406 3.5c-.233.24-.32.578-.25.906.072.33.282.598.595.72l18.5 7.25L9.595 32H5c-.238 0-.477.094-.656.25l-4 3.375c-.285.242-.4.637-.313 1 .087.363.357.66.72.75l9.53 2.344 2.345 9.53c.086.34.352.613.688.72.332.104.675.01.937-.22l3.406-3c.215-.19.344-.465.344-.75v-5.563l9.813-9.562 7.156 18.5c.12.313.39.523.718.594.07.014.148.03.218.03.258 0 .5-.098.688-.28l3.5-3.407c.226-.223.355-.532.312-.844l-3.25-24 6.75-6.75C45.29 13.335 52.07 4.175 49 .97c-.543-.52-1.293-.782-2.22-.782z"/></symbol></defs></svg>